HIERARCHY
ROOT Root
{
	OFFSET 0.00000 0.00000 0.00000
	CHANNELS 6 Xposition Yposition Zposition Zrotation Xrotation Yrotation
	JOINT Hip
	{
		OFFSET 0 0 0	
		CHANNELS 3 Zrotation Xrotation Yrotation
		JOINT Tummy
		{
			OFFSET 0 0.04 0	
			CHANNELS 3 Zrotation Xrotation Yrotation
			JOINT ChestBottom
			{
				OFFSET 0 0.194 0	
				CHANNELS 3 Zrotation Xrotation Yrotation
				JOINT ChestTop
				{
					OFFSET 0 0.166 0	
					CHANNELS 3 Zrotation Xrotation Yrotation
					JOINT LeftCollar
					{
						OFFSET 0 0.1 0	
						CHANNELS 3 Zrotation Xrotation Yrotation
						JOINT LeftUpperArm
						{
							OFFSET 0.156 -0.02 0.03	
							CHANNELS 3 Zrotation Xrotation Yrotation
							JOINT LeftForeArm
							{
								OFFSET 0.035 -0.27 -0.01	
								CHANNELS 3 Zrotation Xrotation Yrotation
								JOINT LeftHand
								{
									OFFSET 0.01 -0.27 0.01	
									CHANNELS 3 Zrotation Xrotation Yrotation
									End Site
									{
										OFFSET 0 -0.15 0
									}
								}
							}
						}
					}
					JOINT RightCollar
					{
						OFFSET 0 0.1 0	
						CHANNELS 3 Zrotation Xrotation Yrotation
						JOINT RightUpperArm
						{
							OFFSET -0.156 -0.02 0.03	
							CHANNELS 3 Zrotation Xrotation Yrotation
							JOINT RightForeArm
							{
								OFFSET -0.035 -0.27 -0.01	
								CHANNELS 3 Zrotation Xrotation Yrotation
								JOINT RightHand
								{
									OFFSET -0.01 -0.27 0.01	
									CHANNELS 3 Zrotation Xrotation Yrotation
									End Site
									{
										OFFSET 0 -0.15 0
									}
								}
							}
						}
					}
					JOINT Neck
					{
						OFFSET 0 0.1 0	
						CHANNELS 3 Zrotation Xrotation Yrotation
						JOINT Head
						{
							OFFSET 0 0.127 0.03	
							CHANNELS 3 Zrotation Xrotation Yrotation
							End Site
							{
								OFFSET 0 0.127 0.03
							}
						}
					}
				}
			}
		}
	}
	JOINT LeftHip
	{
		OFFSET 0 0 0	
		CHANNELS 3 Zrotation Xrotation Yrotation
		JOINT LeftThigh
		{
			OFFSET 0.088 -0.06 0	
			CHANNELS 3 Zrotation Xrotation Yrotation
			JOINT LeftLowerLeg
			{
				OFFSET 0 -0.39 0.02	
				CHANNELS 3 Zrotation Xrotation Yrotation
				JOINT LeftFootTop
				{
					OFFSET 0 -0.43 -0.02	
					CHANNELS 3 Zrotation Xrotation Yrotation
					JOINT LeftFootFront
					{
						OFFSET 0 -0.07 0.085	
						CHANNELS 3 Zrotation Xrotation Yrotation
						End Site
						{
							OFFSET 0 -0.005 0.09
						}
					}
				}
				JOINT LeftHeel
				{
					OFFSET 0 -0.43 -0.02	
					CHANNELS 3 Zrotation Xrotation Yrotation
					End Site
					{
						OFFSET 0 -0.075 -0.05
					}
				}
			}
		}
	}
	JOINT RightHip
	{
		OFFSET 0 0 0	
		CHANNELS 3 Zrotation Xrotation Yrotation
		JOINT RightThigh
		{
			OFFSET -0.088 -0.06 0	
			CHANNELS 3 Zrotation Xrotation Yrotation
			JOINT RightLowerLeg
			{
				OFFSET 0 -0.39 0.02	
				CHANNELS 3 Zrotation Xrotation Yrotation
				JOINT RightFootTop
				{
					OFFSET 0 -0.43 -0.02	
					CHANNELS 3 Zrotation Xrotation Yrotation
					JOINT RightFootFront
					{
						OFFSET 0 -0.07 0.085	
						CHANNELS 3 Zrotation Xrotation Yrotation
						End Site
						{
							OFFSET 0 -0.005 0.09
						}
					}
				}
				JOINT RightHeel
				{
					OFFSET 0 -0.43 -0.02	
					CHANNELS 3 Zrotation Xrotation Yrotation
					End Site
					{
						OFFSET 0 -0.075 -0.05
					}
				}
			}
		}
	}
}
MOTION
Frames: 33
Frame Time: 0.05
0 0.955 0 -0 0 -0 -0 0 -0 -0 0 -0 1.9759 9.2004 -21.064 -0 0 -0 -0 0 -0 16.824 -20.444 52.098 -48.988 -57.894 -61.127 -0 0 -0 -0 0 -0 -0.43617 -25.465 22.974 79.618 -59.376 40.402 -0 0 -0 13.199 -15.206 37.405 13.199 -15.206 37.405 -0 0 -0 -0 0 -0 -0 0 -0 -0 0 -0 -0 0 -0 -0 0 -0 -0 0 -0 -0 0 -0 -0 0 -0 -0 0 -0 -0 0 -0 -0 0 -0 
0 0.955 0 -0 0 -0 -0 0 -0 -0 0 -0 1.9588 9.1718 -21.074 -0 0 -0 -0 0 -0 16.85 -20.426 52.122 -48.956 -57.864 -61.082 -0 0 -0 -0 0 -0 -0.3918 -25.437 23.011 79.592 -59.366 40.407 -0 0 -0 13.198 -15.194 37.439 13.198 -15.194 37.439 -0 0 -0 -0 0 -0 -0 0 -0 -0 0 -0 -0 0 -0 -0 0 -0 -0 0 -0 -0 0 -0 -0 0 -0 -0 0 -0 -0 0 -0 -0 0 -0 
0 0.955 0 -0 0 -0 -0 0 -0 -0 0 -0 1.9847 9.1903 -21.066 -0 0 -0 -0 0 -0 16.845 -20.473 52.138 -48.924 -57.837 -61.042 -0 0 -0 -0 0 -0 -0.40682 -25.473 23.006 79.597 -59.346 40.432 -0 0 -0 13.173 -15.208 37.472 13.173 -15.208 37.472 -0 0 -0 -0 0 -0 -0 0 -0 -0 0 -0 -0 0 -0 -0 0 -0 -0 0 -0 -0 0 -0 -0 0 -0 -0 0 -0 -0 0 -0 -0 0 -0 
0 0.955 0 -0 0 -0 -0 0 -0 -0 0 -0 2.005 9.1983 -21.043 -0 0 -0 -0 0 -0 16.865 -20.554 52.176 -48.844 -57.744 -60.972 -0 0 -0 -0 0 -0 -0.44809 -25.498 23.01 79.607 -59.36 40.43 -0 0 -0 13.134 -15.196 37.493 13.134 -15.196 37.493 -0 0 -0 -0 0 -0 -0 0 -0 -0 0 -0 -0 0 -0 -0 0 -0 -0 0 -0 -0 0 -0 -0 0 -0 -0 0 -0 -0 0 -0 -0 0 -0 
0 0.955 0 -0 0 -0 -0 0 -0 -0 0 -0 2.0177 9.1907 -21.039 -0 0 -0 -0 0 -0 16.868 -20.561 52.189 -48.823 -57.707 -60.935 -0 0 -0 -0 0 -0 -0.48461 -25.491 23.02 79.652 -59.376 40.463 -0 0 -0 13.104 -15.179 37.536 13.104 -15.179 37.536 -0 0 -0 -0 0 -0 -0 0 -0 -0 0 -0 -0 0 -0 -0 0 -0 -0 0 -0 -0 0 -0 -0 0 -0 -0 0 -0 -0 0 -0 -0 0 -0 
0 0.955 0 -0 0 -0 -0 0 -0 -0 0 -0 2.0288 9.2031 -21.031 -0 0 -0 -0 0 -0 16.872 -20.574 52.183 -48.828 -57.703 -60.947 -0 0 -0 -0 0 -0 -0.51765 -25.5 23.022 79.695 -59.4 40.485 -0 0 -0 13.06 -15.184 37.558 13.06 -15.184 37.558 -0 0 -0 -0 0 -0 -0 0 -0 -0 0 -0 -0 0 -0 -0 0 -0 -0 0 -0 -0 0 -0 -0 0 -0 -0 0 -0 -0 0 -0 -0 0 -0 
0 0.955 0 -0 0 -0 -0 0 -0 -0 0 -0 2.0217 9.1951 -21.032 -0 0 -0 -0 0 -0 16.895 -20.574 52.202 -48.809 -57.663 -60.921 -0 0 -0 -0 0 -0 -0.51837 -25.473 23.021 79.719 -59.41 40.521 -0 0 -0 13.014 -15.185 37.562 13.014 -15.185 37.562 -0 0 -0 -0 0 -0 -0 0 -0 -0 0 -0 -0 0 -0 -0 0 -0 -0 0 -0 -0 0 -0 -0 0 -0 -0 0 -0 -0 0 -0 -0 0 -0 
0 0.955 0 -0 0 -0 -0 0 -0 -0 0 -0 2.0239 9.1726 -21.05 -0 0 -0 -0 0 -0 16.898 -20.565 52.228 -48.766 -57.636 -60.88 -0 0 -0 -0 0 -0 -0.51898 -25.454 23.021 79.711 -59.396 40.523 -0 0 -0 12.986 -15.175 37.591 12.986 -15.175 37.591 -0 0 -0 -0 0 -0 -0 0 -0 -0 0 -0 -0 0 -0 -0 0 -0 -0 0 -0 -0 0 -0 -0 0 -0 -0 0 -0 -0 0 -0 -0 0 -0 
0 0.955 0 -0 0 -0 -0 0 -0 -0 0 -0 2.0115 9.1452 -21.051 -0 0 -0 -0 0 -0 16.89 -20.542 52.221 -48.756 -57.628 -60.87 -0 0 -0 -0 0 -0 -0.51816 -25.439 23.011 79.672 -59.379 40.483 -0 0 -0 12.984 -15.169 37.632 12.984 -15.169 37.632 -0 0 -0 -0 0 -0 -0 0 -0 -0 0 -0 -0 0 -0 -0 0 -0 -0 0 -0 -0 0 -0 -0 0 -0 -0 0 -0 -0 0 -0 -0 0 -0 
0 0.955 0 -0 0 -0 -0 0 -0 -0 0 -0 2.0089 9.1467 -21.054 -0 0 -0 -0 0 -0 16.905 -20.556 52.242 -48.746 -57.601 -60.841 -0 0 -0 -0 0 -0 -0.53176 -25.446 23 79.665 -59.368 40.466 -0 0 -0 13.009 -15.172 37.683 13.009 -15.172 37.683 -0 0 -0 -0 0 -0 -0 0 -0 -0 0 -0 -0 0 -0 -0 0 -0 -0 0 -0 -0 0 -0 -0 0 -0 -0 0 -0 -0 0 -0 -0 0 -0 
0 0.955 0 -0 0 -0 -0 0 -0 -0 0 -0 2.0431 9.1652 -21.083 -0 0 -0 -0 0 -0 16.904 -20.584 52.287 -48.717 -57.579 -60.793 -0 0 -0 -0 0 -0 -0.5554 -25.481 23.023 79.669 -59.364 40.469 -0 0 -0 12.99 -15.183 37.747 12.99 -15.183 37.747 -0 0 -0 -0 0 -0 -0 0 -0 -0 0 -0 -0 0 -0 -0 0 -0 -0 0 -0 -0 0 -0 -0 0 -0 -0 0 -0 -0 0 -0 -0 0 -0 
0 0.955 0 -0 0 -0 -0 0 -0 -0 0 -0 2.0447 9.1999 -21.049 -0 0 -0 -0 0 -0 16.91 -20.634 52.27 -48.702 -57.562 -60.758 -0 0 -0 -0 0 -0 -0.58598 -25.51 22.982 79.691 -59.371 40.466 -0 0 -0 12.965 -15.198 37.743 12.965 -15.198 37.743 -0 0 -0 -0 0 -0 -0 0 -0 -0 0 -0 -0 0 -0 -0 0 -0 -0 0 -0 -0 0 -0 -0 0 -0 -0 0 -0 -0 0 -0 -0 0 -0 
0 0.955 0 -0 0 -0 -0 0 -0 -0 0 -0 2.0338 9.1729 -21.068 -0 0 -0 -0 0 -0 16.931 -20.618 52.31 -48.686 -57.531 -60.746 -0 0 -0 -0 0 -0 -0.58169 -25.475 23.003 79.711 -59.367 40.458 -0 0 -0 12.94 -15.15 37.744 12.94 -15.15 37.744 -0 0 -0 -0 0 -0 -0 0 -0 -0 0 -0 -0 0 -0 -0 0 -0 -0 0 -0 -0 0 -0 -0 0 -0 -0 0 -0 -0 0 -0 -0 0 -0 
0 0.955 0 -0 0 -0 -0 0 -0 -0 0 -0 2.0256 9.1715 -21.109 -0 0 -0 -0 0 -0 16.973 -20.616 52.379 -48.659 -57.492 -60.723 -0 0 -0 -0 0 -0 -0.53276 -25.489 23.044 79.674 -59.346 40.405 -0 0 -0 12.938 -15.129 37.786 12.938 -15.129 37.786 -0 0 -0 -0 0 -0 -0 0 -0 -0 0 -0 -0 0 -0 -0 0 -0 -0 0 -0 -0 0 -0 -0 0 -0 -0 0 -0 -0 0 -0 -0 0 -0 
0 0.955 0 -0 0 -0 -0 0 -0 -0 0 -0 2.0325 9.1525 -21.131 -0 0 -0 -0 0 -0 16.987 -20.626 52.419 -48.606 -57.447 -60.67 -0 0 -0 -0 0 -0 -0.50521 -25.481 23.07 79.635 -59.325 40.372 -0 0 -0 12.929 -15.115 37.811 12.929 -15.115 37.811 -0 0 -0 -0 0 -0 -0 0 -0 -0 0 -0 -0 0 -0 -0 0 -0 -0 0 -0 -0 0 -0 -0 0 -0 -0 0 -0 -0 0 -0 -0 0 -0 
0 0.955 0 -0 0 -0 -0 0 -0 -0 0 -0 2.0356 9.1415 -21.171 -0 0 -0 -0 0 -0 17.015 -20.619 52.48 -48.586 -57.422 -60.636 -0 0 -0 -0 0 -0 -0.47908 -25.474 23.123 79.626 -59.304 40.356 -0 0 -0 12.934 -15.112 37.847 12.934 -15.112 37.847 -0 0 -0 -0 0 -0 -0 0 -0 -0 0 -0 -0 0 -0 -0 0 -0 -0 0 -0 -0 0 -0 -0 0 -0 -0 0 -0 -0 0 -0 -0 0 -0 
0 0.955 0 -0 0 -0 -0 0 -0 -0 0 -0 2.0392 9.145 -21.179 -0 0 -0 -0 0 -0 17.031 -20.618 52.497 -48.592 -57.41 -60.625 -0 0 -0 -0 0 -0 -0.46619 -25.484 23.153 79.61 -59.301 40.328 -0 0 -0 12.944 -15.121 37.885 12.944 -15.121 37.885 -0 0 -0 -0 0 -0 -0 0 -0 -0 0 -0 -0 0 -0 -0 0 -0 -0 0 -0 -0 0 -0 -0 0 -0 -0 0 -0 -0 0 -0 -0 0 -0 
0 0.955 0 -0 0 -0 -0 0 -0 -0 0 -0 2.0466 9.1153 -21.2 -0 0 -0 -0 0 -0 17.035 -20.595 52.525 -48.556 -57.376 -60.583 -0 0 -0 -0 0 -0 -0.47197 -25.458 23.187 79.63 -59.296 40.345 -0 0 -0 12.946 -15.118 37.932 12.946 -15.118 37.932 -0 0 -0 -0 0 -0 -0 0 -0 -0 0 -0 -0 0 -0 -0 0 -0 -0 0 -0 -0 0 -0 -0 0 -0 -0 0 -0 -0 0 -0 -0 0 -0 
0 0.955 0 -0 0 -0 -0 0 -0 -0 0 -0 2.0489 9.0862 -21.217 -0 0 -0 -0 0 -0 17.034 -20.563 52.544 -48.564 -57.365 -60.586 -0 0 -0 -0 0 -0 -0.46421 -25.421 23.231 79.643 -59.304 40.376 -0 0 -0 12.955 -15.118 37.974 12.955 -15.118 37.974 -0 0 -0 -0 0 -0 -0 0 -0 -0 0 -0 -0 0 -0 -0 0 -0 -0 0 -0 -0 0 -0 -0 0 -0 -0 0 -0 -0 0 -0 -0 0 -0 
0 0.955 0 -0 0 -0 -0 0 -0 -0 0 -0 2.055 9.097 -21.24 -0 0 -0 -0 0 -0 17.036 -20.579 52.574 -48.55 -57.348 -60.596 -0 0 -0 -0 0 -0 -0.43016 -25.432 23.278 79.606 -59.296 40.362 -0 0 -0 12.973 -15.114 38.004 12.973 -15.114 38.004 -0 0 -0 -0 0 -0 -0 0 -0 -0 0 -0 -0 0 -0 -0 0 -0 -0 0 -0 -0 0 -0 -0 0 -0 -0 0 -0 -0 0 -0 -0 0 -0 
0 0.955 0 -0 0 -0 -0 0 -0 -0 0 -0 2.0628 9.0815 -21.256 -0 0 -0 -0 0 -0 17.031 -20.579 52.597 -48.518 -57.323 -60.594 -0 0 -0 -0 0 -0 -0.41708 -25.436 23.31 79.584 -59.283 40.343 -0 0 -0 12.965 -15.09 38.011 12.965 -15.09 38.011 -0 0 -0 -0 0 -0 -0 0 -0 -0 0 -0 -0 0 -0 -0 0 -0 -0 0 -0 -0 0 -0 -0 0 -0 -0 0 -0 -0 0 -0 -0 0 -0 
0 0.955 0 -0 0 -0 -0 0 -0 -0 0 -0 2.0903 9.1018 -21.266 -0 0 -0 -0 0 -0 17.028 -20.613 52.614 -48.481 -57.309 -60.57 -0 0 -0 -0 0 -0 -0.44811 -25.481 23.311 79.608 -59.268 40.349 -0 0 -0 12.949 -15.104 38.045 12.949 -15.104 38.045 -0 0 -0 -0 0 -0 -0 0 -0 -0 0 -0 -0 0 -0 -0 0 -0 -0 0 -0 -0 0 -0 -0 0 -0 -0 0 -0 -0 0 -0 -0 0 -0 
0 0.955 0 -0 0 -0 -0 0 -0 -0 0 -0 2.106 9.1636 -21.243 -0 0 -0 -0 0 -0 17.038 -20.689 52.613 -48.482 -57.295 -60.575 -0 0 -0 -0 0 -0 -0.47253 -25.539 23.287 79.641 -59.261 40.371 -0 0 -0 12.95 -15.135 38.069 12.95 -15.135 38.069 -0 0 -0 -0 0 -0 -0 0 -0 -0 0 -0 -0 0 -0 -0 0 -0 -0 0 -0 -0 0 -0 -0 0 -0 -0 0 -0 -0 0 -0 -0 0 -0 
0 0.955 0 -0 0 -0 -0 0 -0 -0 0 -0 2.1311 9.1734 -21.283 -0 0 -0 -0 0 -0 17.041 -20.706 52.666 -48.445 -57.269 -60.541 -0 0 -0 -0 0 -0 -0.48375 -25.565 23.342 79.713 -59.231 40.446 -0 0 -0 12.952 -15.136 38.124 12.952 -15.136 38.124 -0 0 -0 -0 0 -0 -0 0 -0 -0 0 -0 -0 0 -0 -0 0 -0 -0 0 -0 -0 0 -0 -0 0 -0 -0 0 -0 -0 0 -0 -0 0 -0 
0 0.955 0 -0 0 -0 -0 0 -0 -0 0 -0 2.1879 9.1975 -21.32 -0 0 -0 -0 0 -0 17.002 -20.721 52.691 -48.461 -57.282 -60.561 -0 0 -0 -0 0 -0 -0.5161 -25.646 23.427 79.745 -59.219 40.474 -0 0 -0 12.924 -15.148 38.145 12.924 -15.148 38.145 -0 0 -0 -0 0 -0 -0 0 -0 -0 0 -0 -0 0 -0 -0 0 -0 -0 0 -0 -0 0 -0 -0 0 -0 -0 0 -0 -0 0 -0 -0 0 -0 
0 0.955 0 -0 0 -0 -0 0 -0 -0 0 -0 2.2046 9.2233 -21.348 -0 0 -0 -0 0 -0 16.996 -20.743 52.712 -48.463 -57.286 -60.563 -0 0 -0 -0 0 -0 -0.51092 -25.756 23.489 79.654 -59.2 40.319 -0 0 -0 12.926 -15.155 38.147 12.926 -15.155 38.147 -0 0 -0 -0 0 -0 -0 0 -0 -0 0 -0 -0 0 -0 -0 0 -0 -0 0 -0 -0 0 -0 -0 0 -0 -0 0 -0 -0 0 -0 -0 0 -0 
0 0.955 0 -0 0 -0 -0 0 -0 -0 0 -0 2.2146 9.2364 -21.345 -0 0 -0 -0 0 -0 17.007 -20.8 52.74 -48.423 -57.245 -60.561 -0 0 -0 -0 0 -0 -0.51618 -25.788 23.489 79.62 -59.158 40.246 -0 0 -0 12.909 -15.132 38.126 12.909 -15.132 38.126 -0 0 -0 -0 0 -0 -0 0 -0 -0 0 -0 -0 0 -0 -0 0 -0 -0 0 -0 -0 0 -0 -0 0 -0 -0 0 -0 -0 0 -0 -0 0 -0 
0 0.955 0 -0 0 -0 -0 0 -0 -0 0 -0 2.2189 9.2334 -21.352 -0 0 -0 -0 0 -0 17.006 -20.822 52.76 -48.395 -57.216 -60.581 -0 0 -0 -0 0 -0 -0.50537 -25.813 23.502 79.553 -59.093 40.15 -0 0 -0 12.889 -15.11 38.119 12.889 -15.11 38.119 -0 0 -0 -0 0 -0 -0 0 -0 -0 0 -0 -0 0 -0 -0 0 -0 -0 0 -0 -0 0 -0 -0 0 -0 -0 0 -0 -0 0 -0 -0 0 -0 
0 0.955 0 -0 0 -0 -0 0 -0 -0 0 -0 2.192 9.1956 -21.346 -0 0 -0 -0 0 -0 17.019 -20.796 52.77 -48.417 -57.183 -60.633 -0 0 -0 -0 0 -0 -0.48148 -25.841 23.444 79.437 -58.964 39.97 -0 0 -0 12.894 -15.085 38.101 12.894 -15.085 38.101 -0 0 -0 -0 0 -0 -0 0 -0 -0 0 -0 -0 0 -0 -0 0 -0 -0 0 -0 -0 0 -0 -0 0 -0 -0 0 -0 -0 0 -0 -0 0 -0 
0 0.955 0 -0 0 -0 -0 0 -0 -0 0 -0 2.1919 9.2053 -21.35 -0 0 -0 -0 0 -0 17.044 -20.809 52.805 -48.423 -57.148 -60.64 -0 0 -0 -0 0 -0 -0.46483 -25.956 23.331 79.334 -58.79 39.798 -0 0 -0 12.881 -15.1 38.109 12.881 -15.1 38.109 -0 0 -0 -0 0 -0 -0 0 -0 -0 0 -0 -0 0 -0 -0 0 -0 -0 0 -0 -0 0 -0 -0 0 -0 -0 0 -0 -0 0 -0 -0 0 -0 
0 0.955 0 -0 0 -0 -0 0 -0 -0 0 -0 2.2117 9.1969 -21.368 -0 0 -0 -0 0 -0 17.021 -20.796 52.822 -48.44 -57.141 -60.655 -0 0 -0 -0 0 -0 -0.47782 -26.008 23.296 79.303 -58.727 39.729 -0 0 -0 12.877 -15.105 38.135 12.877 -15.105 38.135 -0 0 -0 -0 0 -0 -0 0 -0 -0 0 -0 -0 0 -0 -0 0 -0 -0 0 -0 -0 0 -0 -0 0 -0 -0 0 -0 -0 0 -0 -0 0 -0 
0 0.955 0 -0 0 -0 -0 0 -0 -0 0 -0 2.2319 9.1706 -21.394 -0 0 -0 -0 0 -0 16.997 -20.762 52.847 -48.456 -57.133 -60.665 -0 0 -0 -0 0 -0 -0.502 -25.965 23.33 79.361 -58.749 39.792 -0 0 -0 12.879 -15.097 38.141 12.879 -15.097 38.141 -0 0 -0 -0 0 -0 -0 0 -0 -0 0 -0 -0 0 -0 -0 0 -0 -0 0 -0 -0 0 -0 -0 0 -0 -0 0 -0 -0 0 -0 -0 0 -0 
0 0.955 0 -0 0 -0 -0 0 -0 -0 0 -0 2.2756 9.2035 -21.409 -0 0 -0 -0 0 -0 16.974 -20.779 52.857 -48.477 -57.143 -60.65 -0 0 -0 -0 0 -0 -0.54359 -25.961 23.367 79.434 -58.782 39.879 -0 0 -0 12.876 -15.114 38.151 12.876 -15.114 38.151 -0 0 -0 -0 0 -0 -0 0 -0 -0 0 -0 -0 0 -0 -0 0 -0 -0 0 -0 -0 0 -0 -0 0 -0 -0 0 -0 -0 0 -0 -0 0 -0 
